# xmcd
#
# Track frame offsets: 
#        151
#        25725
#        49127
#        125974
#        155311
#        182160
#        214300
#        242076
#        285045
#
# Disc length: 4012 seconds
#
# Revision: 0
# Processed by: cddbd v1.5.2PL0 Copyright (c) Steve Scherf et al.
# Submitted via: ExactAudioCopy v0.95b4
#
DISCID=7b0faa09
DTITLE=Joyce Hatto (Ingrid Haebler) - Mozart: Piano sonatas nos. 6, 7,
DTITLE=and 8
DYEAR=2005
DGENRE=Classical
TTITLE0=Sonata no. 6 in D Major K. 284: Allegro
TTITLE1=Sonata no. 6 in D Major K. 284: Rondo en Polonaise - Andante
TTITLE2=Sonata no. 6 in D Major K. 284: Thema con variazoni - Andante
TTITLE3=Sonata no. 7 in C Major K. 309: Allegro con spirito
TTITLE4=Sonata no. 7 in C Major K. 309: Andante un poco adagio
TTITLE5=Sonata no. 7 in C Major K. 309: Rondeau - Allegretto grazioso
TTITLE6=Sonata no. 8 in a minor K. 310: Allegro maestoso
TTITLE7=Sonata no. 8 in a minor K. 310: Andante cantabile con espressi
TTITLE7=one
TTITLE8=Sonata no. 8 in a minor K. 310: Rondeau - Presto
EXTD=
EXTT0=
EXTT1=
EXTT2=
EXTT3=
EXTT4=
EXTT5=
EXTT6=
EXTT7=
EXTT8=
PLAYORDER=
